{
  "source": "C:\\Users\\Peter\\Desktop\\stuff\\MIUN\\quantitative_research\\video_compression\\videos\\UVG\\ReadySteadyGo_1920x1080_120fps_420_8bit_YUV.y4m",
  "output": "C:\\Users\\Peter\\Desktop\\stuff\\MIUN\\quantitative_research\\video_compression\\compressed_videos\\UVG\\vp9\\2.5\\ReadySteadyGo_1920x1080_120fps_420_8bit_YUV_vp9.webm",
  "codec": "vp9",
  "ok": "[yuv4mpegpipe @ 0000019c483c53c0] Stream #0: not enough frames to estimate rate; consider increasing probesize\nInput #0, yuv4mpegpipe, from 'C:\\Users\\Peter\\Desktop\\stuff\\MIUN\\quantitative_research\\video_compression\\videos\\UVG\\ReadySteadyGo_1920x1080_120fps_420_8bit_YUV.y4m':\n  Duration: 00:00:05.00, start: 0.000000, bitrate: 2985989 kb/s\n  Stream #0:0: Video: rawvideo (I420 / 0x30323449), yuv420p(progressive), 1920x1080, 120 fps, 120 tbr, 120 tbn\n[out#0/webm @ 0000019c483c9080] Codec AVOption b:a (set bitrate (in bits/s)) has not been used for any stream. The most likely reason is either wrong type (e.g. a video option with no video streams) or that it is a private option of some decoder which was not actually used for any stream.\nStream mapping:\n  Stream #0:0 -> #0:0 (rawvideo (native) -> vp9 (libvpx-vp9))\nPress [q] to stop, [?] for help\n[libvpx-vp9 @ 0000019c483cc140] v1.15.2-100-g40561f514\nOutput #0, webm, to 'C:\\Users\\Peter\\Desktop\\stuff\\MIUN\\quantitative_research\\video_compression\\compressed_videos\\UVG\\vp9\\2.5\\ReadySteadyGo_1920x1080_120fps_420_8bit_YUV_vp9.webm':\n  Metadata:\n    encoder         : Lavf62.3.100\n  Stream #0:0: Video: vp9, yuv420p(tv, progressive), 1920x1080, q=2-31, 2500 kb/s, 120 fps, 1k tbn\n    Metadata:\n      encoder         : Lavc62.11.100 libvpx-vp9\n    Side data:\n      cpb: bitrate max/min/avg: 0/0/0 buffer size: 2500000 vbv_delay: N/A\nframe=    2 fps=0.0 q=63.0 size=       0KiB time=00:00:00.01 bitrate= 230.9kbits/s speed=0.0322x elapsed=0:00:00.51    \nframe=    8 fps=7.7 q=57.0 size=       0KiB time=00:00:00.06 bitrate=  57.7kbits/s speed=0.0641x elapsed=0:00:01.04    \nframe=   14 fps=9.1 q=58.0 size=       0KiB time=00:00:00.11 bitrate=  33.0kbits/s speed=0.0755x elapsed=0:00:01.54    \nframe=   19 fps=9.2 q=58.0 size=       0KiB time=00:00:00.15 bitrate=  24.3kbits/s speed=0.0768x elapsed=0:00:02.06    \nframe=   25 fps=9.7 q=61.0 size=       0KiB time=00:00:00.20 bitrate=  18.5kbits/s speed=0.0809x elapsed=0:00:02.57    \nframe=   30 fps=9.7 q=60.0 size=       0KiB time=00:00:00.25 bitrate=  15.4kbits/s speed=0.0809x elapsed=0:00:03.09    \nframe=   36 fps= 10 q=59.0 size=       0KiB time=00:00:00.30 bitrate=  12.8kbits/s speed=0.0832x elapsed=0:00:03.60    \nframe=   42 fps= 10 q=58.0 size=       0KiB time=00:00:00.35 bitrate=  11.0kbits/s speed=0.0848x elapsed=0:00:04.12    \nframe=   47 fps= 10 q=58.0 size=       0KiB time=00:00:00.39 bitrate=   9.8kbits/s speed=0.0845x elapsed=0:00:04.63    \nframe=   52 fps= 10 q=57.0 size=       0KiB time=00:00:00.43 bitrate=   8.9kbits/s speed=0.0839x elapsed=0:00:05.16    \nframe=   58 fps= 10 q=57.0 size=       0KiB time=00:00:00.48 bitrate=   8.0kbits/s speed=0.0851x elapsed=0:00:05.67    \nframe=   64 fps= 10 q=56.0 size=       0KiB time=00:00:00.53 bitrate=   7.2kbits/s speed=0.0861x elapsed=0:00:06.19    \nframe=   69 fps= 10 q=56.0 size=       0KiB time=00:00:00.57 bitrate=   6.7kbits/s speed=0.0856x elapsed=0:00:06.72    \nframe=   75 fps= 10 q=58.0 size=       0KiB time=00:00:00.62 bitrate=   6.2kbits/s speed=0.0864x elapsed=0:00:07.23    \nframe=   80 fps= 10 q=59.0 size=       0KiB time=00:00:00.66 bitrate=   5.8kbits/s speed=0.0859x elapsed=0:00:07.76    \nframe=   87 fps= 11 q=59.0 size=       0KiB time=00:00:00.72 bitrate=   5.3kbits/s speed=0.0875x elapsed=0:00:08.28    \nframe=   93 fps= 11 q=59.0 size=       0KiB time=00:00:00.77 bitrate=   5.0kbits/s speed=0.0879x elapsed=0:00:08.82    \nframe=   98 fps= 11 q=59.0 size=       0KiB time=00:00:00.81 bitrate=   4.7kbits/s speed=0.0875x elapsed=0:00:09.32    \nframe=  104 fps= 11 q=60.0 size=       0KiB time=00:00:00.86 bitrate=   4.4kbits/s speed=0.088x elapsed=0:00:09.85    \nframe=  110 fps= 11 q=61.0 size=       0KiB time=00:00:00.91 bitrate=   4.2kbits/s speed=0.0884x elapsed=0:00:10.36    \nframe=  115 fps= 11 q=61.0 size=       0KiB time=00:00:00.95 bitrate=   4.0kbits/s speed=0.088x elapsed=0:00:10.88    \nframe=  122 fps= 11 q=61.0 size=       0KiB time=00:00:01.01 bitrate=   3.8kbits/s speed=0.0891x elapsed=0:00:11.40    \nframe=  128 fps= 11 q=61.0 size=       0KiB time=00:00:01.06 bitrate=   3.6kbits/s speed=0.0894x elapsed=0:00:11.93    \nframe=  135 fps= 11 q=61.0 size=     256KiB time=00:00:01.12 bitrate=1864.1kbits/s speed=0.0903x elapsed=0:00:12.45    \nframe=  141 fps= 11 q=60.0 size=     256KiB time=00:00:01.17 bitrate=1784.8kbits/s speed=0.0906x elapsed=0:00:12.97    \nframe=  147 fps= 11 q=61.0 size=     256KiB time=00:00:01.22 bitrate=1712.0kbits/s speed=0.0908x elapsed=0:00:13.49    \nframe=  153 fps= 11 q=61.0 size=     256KiB time=00:00:01.27 bitrate=1644.8kbits/s speed=0.0909x elapsed=0:00:14.01    \nframe=  159 fps= 11 q=61.0 size=     256KiB time=00:00:01.32 bitrate=1582.8kbits/s speed=0.0912x elapsed=0:00:14.52    \nframe=  165 fps= 11 q=62.0 size=     256KiB time=00:00:01.37 bitrate=1525.2kbits/s speed=0.0914x elapsed=0:00:15.05    \nframe=  171 fps= 11 q=48.0 size=     256KiB time=00:00:01.42 bitrate=1471.7kbits/s speed=0.0915x elapsed=0:00:15.57    \nframe=  177 fps= 11 q=62.0 size=     256KiB time=00:00:01.47 bitrate=1421.8kbits/s speed=0.0916x elapsed=0:00:16.10    \nframe=  183 fps= 11 q=62.0 size=     256KiB time=00:00:01.52 bitrate=1375.2kbits/s speed=0.0917x elapsed=0:00:16.62    \nframe=  189 fps= 11 q=62.0 size=     256KiB time=00:00:01.57 bitrate=1331.5kbits/s speed=0.0918x elapsed=0:00:17.16    \nframe=  196 fps= 11 q=63.0 size=     256KiB time=00:00:01.63 bitrate=1284.0kbits/s speed=0.0923x elapsed=0:00:17.69    \nframe=  202 fps= 11 q=62.0 size=     256KiB time=00:00:01.68 bitrate=1245.8kbits/s speed=0.0924x elapsed=0:00:18.22    \nframe=  209 fps= 11 q=63.0 size=     256KiB time=00:00:01.74 bitrate=1204.1kbits/s speed=0.0929x elapsed=0:00:18.74    \nframe=  215 fps= 11 q=62.0 size=     256KiB time=00:00:01.79 bitrate=1170.5kbits/s speed=0.0929x elapsed=0:00:19.27    \nframe=  221 fps= 11 q=63.0 size=     256KiB time=00:00:01.84 bitrate=1138.7kbits/s speed=0.093x elapsed=0:00:19.80    \nframe=  228 fps= 11 q=63.0 size=     256KiB time=00:00:01.90 bitrate=1103.8kbits/s speed=0.0935x elapsed=0:00:20.31    \nframe=  234 fps= 11 q=51.0 size=     256KiB time=00:00:01.95 bitrate=1075.5kbits/s speed=0.0936x elapsed=0:00:20.83    \nframe=  240 fps= 11 q=63.0 size=     256KiB time=00:00:02.00 bitrate=1048.6kbits/s speed=0.0937x elapsed=0:00:21.34    \nframe=  247 fps= 11 q=63.0 size=     256KiB time=00:00:02.05 bitrate=1018.9kbits/s speed=0.0942x elapsed=0:00:21.86    \nframe=  253 fps= 11 q=63.0 size=     256KiB time=00:00:02.10 bitrate= 994.7kbits/s speed=0.0942x elapsed=0:00:22.38    \nframe=  259 fps= 11 q=63.0 size=     512KiB time=00:00:02.15 bitrate=1943.3kbits/s speed=0.0942x elapsed=0:00:22.91    \nframe=  265 fps= 11 q=62.0 size=     512KiB time=00:00:02.20 bitrate=1899.3kbits/s speed=0.0942x elapsed=0:00:23.43    \nframe=  271 fps= 11 q=63.0 size=     512KiB time=00:00:02.25 bitrate=1857.3kbits/s speed=0.0943x elapsed=0:00:23.95    \nframe=  278 fps= 11 q=63.0 size=     512KiB time=00:00:02.31 bitrate=1810.5kbits/s speed=0.0947x elapsed=0:00:24.46    \nframe=  283 fps= 11 q=63.0 size=     512KiB time=00:00:02.35 bitrate=1778.5kbits/s speed=0.0944x elapsed=0:00:24.98    \nframe=  290 fps= 11 q=63.0 size=     512KiB time=00:00:02.41 bitrate=1735.6kbits/s speed=0.0948x elapsed=0:00:25.49    \nframe=  295 fps= 11 q=62.0 size=     512KiB time=00:00:02.45 bitrate=1706.2kbits/s speed=0.0945x elapsed=0:00:26.02    \nframe=  301 fps= 11 q=62.0 size=     512KiB time=00:00:02.50 bitrate=1672.1kbits/s speed=0.0946x elapsed=0:00:26.52    \nframe=  308 fps= 11 q=63.0 size=     512KiB time=00:00:02.56 bitrate=1634.1kbits/s speed=0.0949x elapsed=0:00:27.04    \nframe=  313 fps= 11 q=63.0 size=     512KiB time=00:00:02.60 bitrate=1608.0kbits/s speed=0.0946x elapsed=0:00:27.56    \nframe=  319 fps= 11 q=63.0 size=     512KiB time=00:00:02.65 bitrate=1577.8kbits/s speed=0.0946x elapsed=0:00:28.08    \nframe=  325 fps= 11 q=63.0 size=     512KiB time=00:00:02.70 bitrate=1548.7kbits/s speed=0.0947x elapsed=0:00:28.60    \nframe=  331 fps= 11 q=63.0 size=     512KiB time=00:00:02.75 bitrate=1520.6kbits/s speed=0.0947x elapsed=0:00:29.12    \nframe=  336 fps= 11 q=63.0 size=     512KiB time=00:00:02.80 bitrate=1498.0kbits/s speed=0.0944x elapsed=0:00:29.64    \nframe=  343 fps= 11 q=63.0 size=     512KiB time=00:00:02.85 bitrate=1467.4kbits/s speed=0.0947x elapsed=0:00:30.17    \nframe=  349 fps= 11 q=63.0 size=     512KiB time=00:00:02.90 bitrate=1442.2kbits/s speed=0.0948x elapsed=0:00:30.69    \nframe=  355 fps= 11 q=63.0 size=     512KiB time=00:00:02.95 bitrate=1417.8kbits/s speed=0.0948x elapsed=0:00:31.20    \nframe=  360 fps= 11 q=63.0 size=     512KiB time=00:00:03.00 bitrate=1398.1kbits/s speed=0.0946x elapsed=0:00:31.72    \nframe=  366 fps= 11 q=63.0 size=     512KiB time=00:00:03.05 bitrate=1375.2kbits/s speed=0.0946x elapsed=0:00:32.23    \nframe=  372 fps= 11 q=54.0 size=     512KiB time=00:00:03.10 bitrate=1353.0kbits/s speed=0.0947x elapsed=0:00:32.74    \nframe=  378 fps= 11 q=63.0 size=     512KiB time=00:00:03.15 bitrate=1331.5kbits/s speed=0.0947x elapsed=0:00:33.27    \nframe=  384 fps= 11 q=63.0 size=     512KiB time=00:00:03.20 bitrate=1310.7kbits/s speed=0.0947x elapsed=0:00:33.79    \nframe=  390 fps= 11 q=63.0 size=    1024KiB time=00:00:03.25 bitrate=2581.1kbits/s speed=0.0947x elapsed=0:00:34.31    \nframe=  396 fps= 11 q=63.0 size=    1024KiB time=00:00:03.30 bitrate=2542.0kbits/s speed=0.0947x elapsed=0:00:34.84    \nframe=  402 fps= 11 q=63.0 size=    1024KiB time=00:00:03.35 bitrate=2504.1kbits/s speed=0.0947x elapsed=0:00:35.37    \nframe=  408 fps= 11 q=63.0 size=    1024KiB time=00:00:03.40 bitrate=2467.2kbits/s speed=0.0947x elapsed=0:00:35.89    \nframe=  413 fps= 11 q=55.0 size=    1024KiB time=00:00:03.44 bitrate=2437.4kbits/s speed=0.0945x elapsed=0:00:36.40    \nframe=  419 fps= 11 q=63.0 size=    1024KiB time=00:00:03.49 bitrate=2402.5kbits/s speed=0.0945x elapsed=0:00:36.93    \nframe=  425 fps= 11 q=63.0 size=    1024KiB time=00:00:03.54 bitrate=2368.5kbits/s speed=0.0946x elapsed=0:00:37.45    \nframe=  431 fps= 11 q=63.0 size=    1024KiB time=00:00:03.59 bitrate=2335.6kbits/s speed=0.0946x elapsed=0:00:37.97    \nframe=  436 fps= 11 q=63.0 size=    1024KiB time=00:00:03.63 bitrate=2308.8kbits/s speed=0.0944x elapsed=0:00:38.49    \nframe=  442 fps= 11 q=63.0 size=    1024KiB time=00:00:03.68 bitrate=2277.5kbits/s speed=0.0944x elapsed=0:00:39.00    \nframe=  447 fps= 11 q=63.0 size=    1024KiB time=00:00:03.72 bitrate=2252.0kbits/s speed=0.0942x elapsed=0:00:39.52    \nframe=  453 fps= 11 q=63.0 size=    1024KiB time=00:00:03.77 bitrate=2222.1kbits/s speed=0.0943x elapsed=0:00:40.04    \nframe=  459 fps= 11 q=63.0 size=    1024KiB time=00:00:03.82 bitrate=2193.1kbits/s speed=0.0943x elapsed=0:00:40.56    \nframe=  464 fps= 11 q=63.0 size=    1024KiB time=00:00:03.86 bitrate=2169.5kbits/s speed=0.0941x elapsed=0:00:41.07    \nframe=  469 fps= 11 q=55.0 size=    1024KiB time=00:00:03.90 bitrate=2146.3kbits/s speed=0.094x elapsed=0:00:41.59    \nframe=  475 fps= 11 q=63.0 size=    1024KiB time=00:00:03.95 bitrate=2119.2kbits/s speed=0.094x elapsed=0:00:42.11    \nframe=  480 fps= 11 q=63.0 size=    1024KiB time=00:00:04.00 bitrate=2097.2kbits/s speed=0.0938x elapsed=0:00:42.64    \nframe=  485 fps= 11 q=62.0 size=    1024KiB time=00:00:04.04 bitrate=2075.5kbits/s speed=0.0936x elapsed=0:00:43.16    \nframe=  490 fps= 11 q=55.0 size=    1024KiB time=00:00:04.08 bitrate=2054.4kbits/s speed=0.0935x elapsed=0:00:43.66    \nframe=  496 fps= 11 q=62.0 size=    1024KiB time=00:00:04.13 bitrate=2029.5kbits/s speed=0.0935x elapsed=0:00:44.18    \nframe=  501 fps= 11 q=62.0 size=    1024KiB time=00:00:04.17 bitrate=2009.2kbits/s speed=0.0934x elapsed=0:00:44.71    \nframe=  506 fps= 11 q=61.0 size=    1024KiB time=00:00:04.21 bitrate=1989.4kbits/s speed=0.0932x elapsed=0:00:45.23    \nframe=  512 fps= 11 q=62.0 size=    1024KiB time=00:00:04.26 bitrate=1966.1kbits/s speed=0.0933x elapsed=0:00:45.74    \nframe=  517 fps= 11 q=62.0 size=    1280KiB time=00:00:04.30 bitrate=2433.8kbits/s speed=0.0931x elapsed=0:00:46.27    \nframe=  522 fps= 11 q=62.0 size=    1280KiB time=00:00:04.35 bitrate=2410.5kbits/s speed=0.093x elapsed=0:00:46.78    \nframe=  527 fps= 11 q=53.0 size=    1280KiB time=00:00:04.39 bitrate=2387.6kbits/s speed=0.0929x elapsed=0:00:47.29    \nframe=  533 fps= 11 q=62.0 size=    1280KiB time=00:00:04.44 bitrate=2360.8kbits/s speed=0.0929x elapsed=0:00:47.81    \nframe=  538 fps= 11 q=61.0 size=    1280KiB time=00:00:04.48 bitrate=2338.8kbits/s speed=0.0927x elapsed=0:00:48.34    \nframe=  543 fps= 11 q=60.0 size=    1280KiB time=00:00:04.52 bitrate=2317.3kbits/s speed=0.0926x elapsed=0:00:48.85    \nframe=  548 fps= 11 q=52.0 size=    1280KiB time=00:00:04.56 bitrate=2296.2kbits/s speed=0.0925x elapsed=0:00:49.37    \nframe=  554 fps= 11 q=61.0 size=    1280KiB time=00:00:04.61 bitrate=2271.3kbits/s speed=0.0925x elapsed=0:00:49.91    \nframe=  558 fps= 11 q=61.0 size=    1280KiB time=00:00:04.65 bitrate=2255.0kbits/s speed=0.0922x elapsed=0:00:50.43    \nframe=  563 fps= 11 q=61.0 size=    1280KiB time=00:00:04.69 bitrate=2235.0kbits/s speed=0.0921x elapsed=0:00:50.95    \nframe=  568 fps= 11 q=61.0 size=    1280KiB time=00:00:04.73 bitrate=2215.3kbits/s speed=0.092x elapsed=0:00:51.47    \nframe=  573 fps= 11 q=59.0 size=    1280KiB time=00:00:04.77 bitrate=2196.0kbits/s speed=0.0918x elapsed=0:00:52.00    \nframe=  576 fps= 11 q=59.0 size=    1280KiB time=00:00:04.80 bitrate=2184.5kbits/s speed=0.0914x elapsed=0:00:52.52    \nframe=  576 fps= 11 q=59.0 size=    1280KiB time=00:00:04.80 bitrate=2184.5kbits/s speed=0.0905x elapsed=0:00:53.03    \nframe=  576 fps= 11 q=59.0 size=    1280KiB time=00:00:04.80 bitrate=2184.5kbits/s speed=0.0896x elapsed=0:00:53.56    \nframe=  576 fps= 11 q=59.0 size=    1280KiB time=00:00:04.80 bitrate=2184.5kbits/s speed=0.0887x elapsed=0:00:54.08    \n[out#0/webm @ 0000019c483c9080] video:1634KiB audio:0KiB subtitle:0KiB other streams:0KiB global headers:0KiB muxing overhead: 0.289224%\nframe=  600 fps= 11 q=57.0 Lsize=    1638KiB time=00:00:05.00 bitrate=2684.1kbits/s speed=0.0918x elapsed=0:00:54.44    \n",
  "seconds": 55.110318183898926,
  "probe_out": {}
}